<svg width="146" height="43" viewBox="0 0 146 43" fill="none" xmlns="http://www.w3.org/2000/svg">
<path d="M144.541 38.0147C144.541 40.2446 142.697 42.0509 140.416 42.0509H5.43474C3.15509 42.0509 1.30469 40.2446 1.30469 38.0147V5.82713C1.30469 3.59825 3.15509 1.78564 5.43474 1.78564H140.415C142.697 1.78564 144.54 3.59825 144.54 5.82713L144.541 38.0147Z" fill="black"/>
<path d="M139.981 1.83426C142.465 1.83426 144.486 3.80486 144.486 6.2266V37.6098C144.486 40.0315 142.465 42.0021 139.981 42.0021H5.86465C3.38082 42.0021 1.35968 40.0315 1.35968 37.6098V6.2266C1.35968 3.80486 3.38082 1.83426 5.86465 1.83426H139.981ZM139.981 0.996066H5.86465C2.91543 0.996066 0.5 3.35111 0.5 6.2266V37.6098C0.5 40.4853 2.91543 42.8403 5.86465 42.8403H139.981C142.93 42.8403 145.346 40.4853 145.346 37.6098V6.2266C145.346 3.35111 142.93 0.996066 139.981 0.996066Z" fill="#A6A6A6"/>
<path d="M32.825 21.6923C32.7939 18.3207 35.6565 16.6804 35.7874 16.604C34.1662 14.2994 31.6534 13.9846 30.7704 13.9595C28.6599 13.7429 26.6128 15.1907 25.5377 15.1907C24.4412 15.1907 22.7856 13.9804 21.0013 14.016C18.7053 14.0505 16.5573 15.3466 15.3792 17.3593C12.9479 21.4632 14.7612 27.494 17.0905 30.8112C18.2557 32.4358 19.6173 34.2497 21.3994 34.1859C23.1429 34.1158 23.7942 33.1022 25.8982 33.1022C27.9829 33.1022 28.5945 34.1859 30.412 34.1451C32.2832 34.1158 33.4613 32.5132 34.5857 30.874C35.9322 29.0119 36.473 27.1781 36.4944 27.0839C36.4505 27.0693 32.8604 25.7334 32.825 21.6923Z" fill="white"/>
<path d="M29.3916 11.7773C30.3294 10.6339 30.971 9.07833 30.7929 7.49976C29.4356 7.55834 27.7383 8.4151 26.7608 9.53339C25.896 10.5188 25.1235 12.134 25.3231 13.653C26.8477 13.7638 28.4131 12.9029 29.3916 11.7773Z" fill="white"/>
<path d="M58.0573 33.9524H55.6207L54.2859 29.8631H49.6466L48.3752 33.9524H46.0029L50.5994 20.0308H53.4383L58.0573 33.9524ZM53.8836 28.1475L52.6766 24.5123C52.5489 24.1409 52.3096 23.2664 51.9566 21.8897H51.9137C51.7731 22.4818 51.5468 23.3563 51.2356 24.5123L50.05 28.1475H53.8836V28.1475Z" fill="white"/>
<path d="M69.8778 28.8099C69.8778 30.5171 69.4047 31.8666 68.4583 32.8573C67.6107 33.7391 66.5582 34.1795 65.3018 34.1795C63.9456 34.1795 62.9714 33.7046 62.3781 32.7547H62.3351V38.0428H60.0477V27.2187C60.0477 26.1454 60.0187 25.0439 59.9629 23.9141H61.9746L62.1023 25.5052H62.1452C62.9081 24.3064 64.0658 23.708 65.6194 23.708C66.8339 23.708 67.8479 24.1756 68.659 25.1119C69.4723 26.0492 69.8778 27.2815 69.8778 28.8099ZM67.5474 28.8915C67.5474 27.9144 67.3221 27.1089 66.8693 26.475C66.3747 25.8138 65.7106 25.4833 64.878 25.4833C64.3136 25.4833 63.8008 25.6674 63.3426 26.0304C62.8834 26.3965 62.583 26.8746 62.4424 27.4667C62.3716 27.7428 62.3362 27.9688 62.3362 28.1466V29.8204C62.3362 30.5506 62.5658 31.1667 63.025 31.6699C63.4842 32.1731 64.0808 32.4242 64.8147 32.4242C65.6762 32.4242 66.3468 32.0999 66.8264 31.4534C67.3071 30.8058 67.5474 29.9522 67.5474 28.8915Z" fill="white"/>
<path d="M81.72 28.8099C81.72 30.5171 81.2469 31.8666 80.2995 32.8573C79.4529 33.7391 78.4004 34.1795 77.144 34.1795C75.7878 34.1795 74.8136 33.7046 74.2213 32.7547H74.1784V38.0428H71.8909V27.2187C71.8909 26.1454 71.8619 25.0439 71.8062 23.9141H73.8179L73.9456 25.5052H73.9885C74.7503 24.3064 75.908 23.708 77.4626 23.708C78.6761 23.708 79.69 24.1756 80.5033 25.1119C81.3134 26.0492 81.72 27.2815 81.72 28.8099ZM79.3896 28.8915C79.3896 27.9144 79.1632 27.1089 78.7105 26.475C78.2158 25.8138 77.5538 25.4833 76.7202 25.4833C76.1547 25.4833 75.643 25.6674 75.1837 26.0304C74.7245 26.3965 74.4252 26.8746 74.2846 27.4667C74.2149 27.7428 74.1784 27.9688 74.1784 28.1466V29.8204C74.1784 30.5506 74.408 31.1667 74.8651 31.6699C75.3243 32.1721 75.9208 32.4242 76.6569 32.4242C77.5184 32.4242 78.189 32.0999 78.6686 31.4534C79.1493 30.8058 79.3896 29.9522 79.3896 28.8915Z" fill="white"/>
<path d="M94.9597 30.0484C94.9597 31.2326 94.538 32.1961 93.6915 32.9399C92.7612 33.7527 91.4662 34.1586 89.8021 34.1586C88.2657 34.1586 87.0339 33.8698 86.1016 33.2913L86.6316 31.4324C87.6359 32.0245 88.7378 32.3216 89.9384 32.3216C90.7999 32.3216 91.4705 32.1312 91.9523 31.7525C92.4319 31.3738 92.6711 30.8654 92.6711 30.2315C92.6711 29.6666 92.4737 29.1906 92.0778 28.8046C91.684 28.4186 91.0263 28.0598 90.1079 27.7282C87.608 26.8191 86.3591 25.4874 86.3591 23.7362C86.3591 22.5918 86.7968 21.6534 87.6734 20.9232C88.5468 20.192 89.712 19.8269 91.169 19.8269C92.4683 19.8269 93.5477 20.0476 94.4093 20.488L93.8374 22.3062C93.0327 21.8794 92.1228 21.666 91.1046 21.666C90.2999 21.666 89.6712 21.8595 89.2206 22.2445C88.8397 22.5886 88.6487 23.0081 88.6487 23.505C88.6487 24.0553 88.8665 24.5103 89.3043 24.8681C89.6851 25.1987 90.3772 25.5564 91.3815 25.9424C92.61 26.4247 93.5123 26.9886 94.0927 27.635C94.6711 28.2794 94.9597 29.086 94.9597 30.0484Z" fill="white"/>
<path d="M102.523 25.5879H100.002V30.4617C100.002 31.7013 100.446 32.3206 101.336 32.3206C101.745 32.3206 102.084 32.2861 102.353 32.217L102.416 33.9107C101.965 34.0749 101.372 34.1576 100.637 34.1576C99.7335 34.1576 99.0275 33.8887 98.5179 33.3521C98.0104 32.8144 97.755 31.9126 97.755 30.6458V25.5858H96.2529V23.912H97.755V22.074L100.002 21.4128V23.912H102.523V25.5879Z" fill="white"/>
<path d="M113.899 28.8506C113.899 30.3936 113.447 31.6604 112.543 32.6511C111.596 33.6711 110.338 34.1795 108.771 34.1795C107.26 34.1795 106.057 33.6909 105.16 32.7139C104.263 31.7368 103.815 30.5034 103.815 29.0169C103.815 27.4614 104.276 26.1872 105.202 25.1965C106.126 24.2048 107.373 23.709 108.94 23.709C110.451 23.709 111.667 24.1975 112.584 25.1756C113.462 26.1244 113.899 27.3494 113.899 28.8506ZM111.526 28.9228C111.526 27.997 111.323 27.203 110.912 26.5408C110.433 25.7395 109.747 25.3399 108.859 25.3399C107.939 25.3399 107.241 25.7405 106.761 26.5408C106.35 27.204 106.147 28.0106 106.147 28.9646C106.147 29.8904 106.35 30.6844 106.761 31.3456C107.256 32.1469 107.947 32.5465 108.838 32.5465C109.712 32.5465 110.397 32.1385 110.892 31.3246C111.314 30.6499 111.526 29.8475 111.526 28.9228Z" fill="white"/>
<path d="M121.335 25.8755C121.108 25.8347 120.867 25.8138 120.614 25.8138C119.809 25.8138 119.187 26.1099 118.749 26.703C118.368 27.2261 118.177 27.8872 118.177 28.6854V33.9525H115.891L115.912 27.0754C115.912 25.9184 115.883 24.865 115.826 23.9151H117.819L117.902 25.8358H117.966C118.207 25.1757 118.588 24.6443 119.109 24.2457C119.619 23.8869 120.169 23.708 120.763 23.708C120.974 23.708 121.165 23.7227 121.335 23.7488V25.8755Z" fill="white"/>
<path d="M131.565 28.4582C131.565 28.8578 131.538 29.1946 131.481 29.4697H124.619C124.646 30.4615 124.977 31.2199 125.615 31.7429C126.193 32.2105 126.941 32.4449 127.859 32.4449C128.875 32.4449 129.802 32.2869 130.636 31.9699L130.994 33.5182C130.02 33.9324 128.87 34.1385 127.543 34.1385C125.946 34.1385 124.693 33.6803 123.781 32.765C122.871 31.8496 122.415 30.6205 122.415 29.0785C122.415 27.5648 122.839 26.3042 123.688 25.2989C124.576 24.2256 125.777 23.689 127.287 23.689C128.771 23.689 129.894 24.2256 130.657 25.2989C131.261 26.1515 131.565 27.206 131.565 28.4582ZM129.384 27.8797C129.399 27.2185 129.25 26.6474 128.94 26.1651C128.544 25.5448 127.935 25.2351 127.117 25.2351C126.369 25.2351 125.76 25.5374 125.296 26.1442C124.915 26.6264 124.689 27.2049 124.619 27.8786H129.384V27.8797Z" fill="white"/>
<path d="M53.1273 11.4666C53.1273 12.6978 52.7485 13.6247 51.9921 14.2471C51.2915 14.8214 50.2958 15.1091 49.0061 15.1091C48.3667 15.1091 47.8195 15.0819 47.3613 15.0275V8.29999C47.959 8.20584 48.6027 8.15771 49.298 8.15771C50.5265 8.15771 51.4524 8.4182 52.0769 8.93916C52.7764 9.52811 53.1273 10.3702 53.1273 11.4666ZM51.9417 11.4969C51.9417 10.6987 51.7249 10.0867 51.2915 9.65992C50.858 9.23416 50.225 9.02075 49.3913 9.02075C49.0372 9.02075 48.7358 9.04377 48.4858 9.09189V14.2063C48.6242 14.2272 48.8774 14.2366 49.2454 14.2366C50.1059 14.2366 50.77 14.0034 51.2378 13.5368C51.7056 13.0702 51.9417 12.3903 51.9417 11.4969Z" fill="white"/>
<path d="M59.4137 12.5421C59.4137 13.3006 59.1916 13.922 58.7474 14.4094C58.2817 14.9105 57.6648 15.1606 56.8944 15.1606C56.152 15.1606 55.5608 14.921 55.1198 14.4398C54.6799 13.9596 54.46 13.3539 54.46 12.6237C54.46 11.8601 54.6863 11.2335 55.1413 10.747C55.5962 10.2606 56.2078 10.0168 56.9781 10.0168C57.7206 10.0168 58.3171 10.2564 58.7688 10.7366C59.198 11.2031 59.4137 11.8057 59.4137 12.5421ZM58.2474 12.5777C58.2474 12.1227 58.1466 11.7325 57.9459 11.4071C57.7099 11.0138 57.374 10.8171 56.9374 10.8171C56.4857 10.8171 56.1423 11.0138 55.9063 11.4071C55.7046 11.7325 55.6048 12.1289 55.6048 12.5976C55.6048 13.0526 55.7056 13.4428 55.9063 13.7682C56.1498 14.1615 56.4889 14.3582 56.9266 14.3582C57.3558 14.3582 57.6927 14.1584 57.9352 13.7577C58.1433 13.4261 58.2474 13.0328 58.2474 12.5777Z" fill="white"/>
<path d="M67.8423 10.1172L66.2597 15.0485H65.2297L64.5741 12.9072C64.4078 12.3726 64.2726 11.8412 64.1675 11.3139H64.1471C64.0495 11.8558 63.9143 12.3862 63.7405 12.9072L63.0441 15.0485H62.0023L60.5142 10.1172H61.6697L62.2416 12.4615C62.38 13.0159 62.4937 13.5442 62.5849 14.0443H62.6053C62.689 13.6321 62.8274 13.107 63.0227 12.472L63.7405 10.1182H64.6567L65.3445 12.4218C65.5108 12.9835 65.646 13.5244 65.7501 14.0453H65.7812C65.8573 13.538 65.9722 12.9971 66.1245 12.4218L66.7382 10.1182H67.8423V10.1172Z" fill="white"/>
<path d="M73.6716 15.0486H72.5472V12.2241C72.5472 11.3537 72.2081 10.9186 71.5279 10.9186C71.1942 10.9186 70.9249 11.0378 70.7157 11.2774C70.5086 11.5169 70.4035 11.7994 70.4035 12.1226V15.0475H69.279V11.5263C69.279 11.0933 69.2651 10.6236 69.2383 10.1151H70.2264L70.279 10.8861H70.3101C70.441 10.6466 70.6363 10.4489 70.8927 10.2909C71.1974 10.1068 71.5386 10.0137 71.912 10.0137C72.3841 10.0137 72.7768 10.1622 73.089 10.4604C73.4774 10.8255 73.6716 11.3705 73.6716 12.0944V15.0486V15.0486Z" fill="white"/>
<path d="M76.7728 15.0486H75.6494V7.85449H76.7728V15.0486Z" fill="white"/>
<path d="M83.3927 12.5421C83.3927 13.3006 83.1706 13.922 82.7264 14.4094C82.2607 14.9105 81.6427 15.1606 80.8734 15.1606C80.1299 15.1606 79.5387 14.921 79.0988 14.4398C78.6589 13.9596 78.439 13.3539 78.439 12.6237C78.439 11.8601 78.6654 11.2335 79.1203 10.747C79.5752 10.2606 80.1868 10.0168 80.9561 10.0168C81.6996 10.0168 82.2951 10.2564 82.7478 10.7366C83.177 11.2031 83.3927 11.8057 83.3927 12.5421ZM82.2253 12.5777C82.2253 12.1227 82.1245 11.7325 81.9238 11.4071C81.6889 11.0138 81.352 10.8171 80.9164 10.8171C80.4636 10.8171 80.1202 11.0138 79.8853 11.4071C79.6836 11.7325 79.5838 12.1289 79.5838 12.5976C79.5838 13.0526 79.6846 13.4428 79.8853 13.7682C80.1288 14.1615 80.4679 14.3582 80.9056 14.3582C81.3348 14.3582 81.6706 14.1584 81.9131 13.7577C82.1223 13.4261 82.2253 13.0328 82.2253 12.5777Z" fill="white"/>
<path d="M88.8349 15.0486H87.8252L87.7415 14.4806H87.7104C87.3649 14.9335 86.8725 15.1606 86.233 15.1606C85.7555 15.1606 85.3693 15.011 85.0785 14.7139C84.8146 14.444 84.6826 14.1082 84.6826 13.7096C84.6826 13.107 84.9401 12.6478 85.4583 12.3298C85.9755 12.0118 86.7029 11.8559 87.6396 11.8632V11.7712C87.6396 11.1215 87.2898 10.7972 86.5892 10.7972C86.0903 10.7972 85.6504 10.9196 85.2706 11.1623L85.042 10.4426C85.512 10.1591 86.0924 10.0168 86.777 10.0168C88.0988 10.0168 88.7619 10.6968 88.7619 12.0568V13.8728C88.7619 14.3655 88.7866 14.7578 88.8349 15.0486ZM87.6675 13.3539V12.5934C86.4272 12.5725 85.8071 12.9041 85.8071 13.5872C85.8071 13.8445 85.8779 14.037 86.0227 14.1657C86.1676 14.2944 86.3521 14.3582 86.572 14.3582C86.8188 14.3582 87.0495 14.2818 87.2598 14.1301C87.4712 13.9774 87.601 13.7839 87.6493 13.5464C87.6611 13.4931 87.6675 13.4282 87.6675 13.3539Z" fill="white"/>
<path d="M95.2237 15.0486H94.2259L94.1733 14.2567H94.1422C93.8235 14.8592 93.2806 15.1605 92.5178 15.1605C91.9083 15.1605 91.4008 14.9272 90.9985 14.4607C90.5961 13.9941 90.3955 13.3884 90.3955 12.6446C90.3955 11.8464 90.6133 11.1999 91.0511 10.7062C91.4749 10.2459 91.9942 10.0157 92.6122 10.0157C93.2913 10.0157 93.7666 10.2386 94.037 10.6853H94.0585V7.85449H95.184V13.72C95.184 14.2002 95.1969 14.6427 95.2237 15.0486ZM94.0585 12.9689V12.1467C94.0585 12.0044 94.0478 11.8893 94.0274 11.8015C93.9641 11.5378 93.8278 11.3161 93.6207 11.1372C93.4115 10.9583 93.1594 10.8683 92.8686 10.8683C92.4491 10.8683 92.1208 11.0305 91.8794 11.3558C91.6401 11.6812 91.5189 12.0965 91.5189 12.6038C91.5189 13.0913 91.6337 13.4867 91.8643 13.7911C92.1079 14.1154 92.4362 14.2776 92.8471 14.2776C93.2162 14.2776 93.5113 14.1426 93.7355 13.8717C93.9523 13.6217 94.0585 13.3204 94.0585 12.9689Z" fill="white"/>
<path d="M104.84 12.5421C104.84 13.3006 104.618 13.922 104.174 14.4094C103.708 14.9105 103.093 15.1606 102.321 15.1606C101.58 15.1606 100.989 14.921 100.547 14.4398C100.107 13.9596 99.8867 13.3539 99.8867 12.6237C99.8867 11.8601 100.113 11.2335 100.568 10.747C101.023 10.2606 101.635 10.0168 102.406 10.0168C103.147 10.0168 103.745 10.2564 104.196 10.7366C104.625 11.2031 104.84 11.8057 104.84 12.5421ZM103.675 12.5777C103.675 12.1227 103.574 11.7325 103.374 11.4071C103.137 11.0138 102.802 10.8171 102.364 10.8171C101.913 10.8171 101.57 11.0138 101.333 11.4071C101.131 11.7325 101.032 12.1289 101.032 12.5976C101.032 13.0526 101.132 13.4428 101.333 13.7682C101.577 14.1615 101.916 14.3582 102.353 14.3582C102.783 14.3582 103.121 14.1584 103.363 13.7577C103.57 13.4261 103.675 13.0328 103.675 12.5777Z" fill="white"/>
<path d="M110.886 15.0486H109.763V12.2241C109.763 11.3537 109.424 10.9186 108.743 10.9186C108.409 10.9186 108.14 11.0378 107.932 11.2774C107.723 11.5169 107.619 11.7994 107.619 12.1226V15.0475H106.494V11.5263C106.494 11.0933 106.481 10.6236 106.454 10.1151H107.441L107.494 10.8861H107.525C107.657 10.6466 107.852 10.4489 108.107 10.2909C108.413 10.1068 108.753 10.0137 109.128 10.0137C109.599 10.0137 109.992 10.1622 110.304 10.4604C110.693 10.8255 110.886 11.3705 110.886 12.0944V15.0486V15.0486Z" fill="white"/>
<path d="M118.454 10.9385H117.216V13.3341C117.216 13.9429 117.436 14.2473 117.871 14.2473C118.073 14.2473 118.24 14.2306 118.372 14.1961L118.401 15.0277C118.179 15.1093 117.887 15.1501 117.528 15.1501C117.084 15.1501 116.738 15.0183 116.488 14.7547C116.237 14.4911 116.113 14.0475 116.113 13.4251V10.9385H115.374V10.1173H116.113V9.21345L117.215 8.88916V10.1162H118.453V10.9385H118.454Z" fill="white"/>
<path d="M124.406 15.0486H123.281V12.245C123.281 11.361 122.942 10.9185 122.263 10.9185C121.741 10.9185 121.385 11.1748 121.19 11.6874C121.156 11.7952 121.137 11.927 121.137 12.0818V15.0475H120.014V7.85449H121.137V10.8265H121.158C121.513 10.2856 122.02 10.0157 122.678 10.0157C123.143 10.0157 123.529 10.1643 123.834 10.4624C124.215 10.8338 124.406 11.3861 124.406 12.1163V15.0486V15.0486Z" fill="white"/>
<path d="M130.547 12.3496C130.547 12.5462 130.532 12.7115 130.505 12.8465H127.133C127.148 13.3339 127.309 13.7053 127.621 13.9627C127.906 14.1928 128.274 14.3079 128.725 14.3079C129.224 14.3079 129.679 14.2305 130.089 14.0746L130.265 14.8362C129.785 15.0391 129.221 15.1406 128.567 15.1406C127.784 15.1406 127.167 14.9157 126.721 14.4658C126.272 14.016 126.05 13.4124 126.05 12.655C126.05 11.9112 126.257 11.2919 126.675 10.7982C127.11 10.2709 127.699 10.0073 128.443 10.0073C129.17 10.0073 129.723 10.2709 130.096 10.7982C130.398 11.2166 130.547 11.7344 130.547 12.3496ZM129.474 12.0661C129.483 11.7407 129.409 11.4604 129.256 11.2239C129.061 10.9195 128.764 10.7668 128.361 10.7668C127.994 10.7668 127.695 10.9153 127.467 11.2135C127.28 11.451 127.169 11.7344 127.133 12.0661H129.474Z" fill="white"/>
</svg>
