<svg width="146" height="43" viewBox="0 0 146 43" fill="none" xmlns="http://www.w3.org/2000/svg">
<path d="M140.143 42.8403H6.21079C3.26563 42.8403 0.853516 40.4853 0.853516 37.6098V6.2266C0.853516 3.35112 3.26563 0.996071 6.21079 0.996071H140.143C143.088 0.996071 145.5 3.35112 145.5 6.2266V37.6098C145.5 40.4853 143.088 42.8403 140.143 42.8403Z" fill="black"/>
<path d="M140.143 1.83426C142.623 1.83426 144.641 3.80487 144.641 6.2266V37.6098C144.641 40.0315 142.623 42.0021 140.143 42.0021H6.21079C3.73037 42.0021 1.71202 40.0315 1.71202 37.6098V6.2266C1.71202 3.80487 3.73037 1.83426 6.21079 1.83426H140.143ZM140.143 0.996071H6.21079C3.26563 0.996071 0.853516 3.35112 0.853516 6.2266V37.6098C0.853516 40.4853 3.26563 42.8403 6.21079 42.8403H140.143C143.088 42.8403 145.5 40.4853 145.5 37.6098V6.2266C145.5 3.35112 143.088 0.996071 140.143 0.996071Z" fill="#A6A6A6"/>
<path d="M51.6595 11.712C51.6595 12.5855 51.3916 13.2851 50.864 13.8069C50.2572 14.4254 49.467 14.7366 48.4987 14.7366C47.5732 14.7366 46.783 14.4201 46.1348 13.7964C45.4852 13.1635 45.1611 12.3868 45.1611 11.457C45.1611 10.5273 45.4852 9.75057 46.1348 9.12291C46.783 8.49394 47.5732 8.17749 48.4987 8.17749C48.9594 8.17749 49.3987 8.27033 49.8179 8.44294C50.2358 8.61686 50.576 8.85223 50.8224 9.14252L50.2626 9.69435C49.8327 9.19875 49.2474 8.95423 48.4987 8.95423C47.8237 8.95423 47.2384 9.18437 46.7415 9.64858C46.25 10.1141 46.0036 10.7169 46.0036 11.457C46.0036 12.1972 46.25 12.8052 46.7415 13.2707C47.2384 13.7297 47.8237 13.9651 48.4987 13.9651C49.2153 13.9651 49.8179 13.7297 50.2934 13.2655C50.6068 12.9582 50.7849 12.5345 50.8318 11.9932H48.4987V11.2374H51.6113C51.6488 11.4008 51.6595 11.559 51.6595 11.712V11.712Z" fill="white" stroke="white" stroke-width="0.128752" stroke-miterlimit="10"/>
<path d="M56.5971 9.09173H53.6734V11.0793H56.3092V11.8351H53.6734V13.8227H56.5971V14.5929H52.8457V8.32153H56.5971V9.09173Z" fill="white" stroke="white" stroke-width="0.128752" stroke-miterlimit="10"/>
<path d="M60.0825 14.5929H59.2548V9.09173H57.4614V8.32153H61.8772V9.09173H60.0825V14.5929V14.5929Z" fill="white" stroke="white" stroke-width="0.128752" stroke-miterlimit="10"/>
<path d="M65.0728 14.5929V8.32153H65.8991V14.5929H65.0728Z" fill="white" stroke="white" stroke-width="0.128752" stroke-miterlimit="10"/>
<path d="M69.562 14.5929H68.741V9.09173H66.9409V8.32153H71.362V9.09173H69.562V14.5929Z" fill="white" stroke="white" stroke-width="0.128752" stroke-miterlimit="10"/>
<path d="M79.7219 13.7859C79.0884 14.4201 78.3035 14.7366 77.3673 14.7366C76.4258 14.7366 75.6409 14.4201 75.0074 13.7859C74.3753 13.153 74.0605 12.3763 74.0605 11.457C74.0605 10.5378 74.3753 9.76103 75.0074 9.12814C75.6409 8.49394 76.4258 8.17749 77.3673 8.17749C78.2982 8.17749 79.083 8.49394 79.7165 9.13337C80.354 9.77149 80.6688 10.543 80.6688 11.457C80.6688 12.3763 80.354 13.153 79.7219 13.7859ZM75.6195 13.2603C76.0963 13.7297 76.6762 13.9651 77.3673 13.9651C78.0531 13.9651 78.6383 13.7297 79.1098 13.2603C79.5852 12.7908 79.8263 12.188 79.8263 11.457C79.8263 10.7261 79.5852 10.1232 79.1098 9.65381C78.6383 9.18437 78.0531 8.94899 77.3673 8.94899C76.6762 8.94899 76.0963 9.18437 75.6195 9.65381C75.1441 10.1232 74.903 10.7261 74.903 11.457C74.903 12.188 75.1441 12.7908 75.6195 13.2603V13.2603Z" fill="white" stroke="white" stroke-width="0.128752" stroke-miterlimit="10"/>
<path d="M81.8301 14.5929V8.32153H82.8346L85.9579 13.199H85.994L85.9579 11.9934V8.32153H86.7842V14.5929H85.9217L82.6511 9.47487H82.6149L82.6511 10.6857V14.5929H81.8301V14.5929Z" fill="white" stroke="white" stroke-width="0.128752" stroke-miterlimit="10"/>
<path d="M73.8567 23.7515C71.3402 23.7515 69.2843 25.6214 69.2843 28.2014C69.2843 30.7604 71.3402 32.65 73.8567 32.65C76.3787 32.65 78.4345 30.7604 78.4345 28.2014C78.4345 25.6214 76.3787 23.7515 73.8567 23.7515ZM73.8567 30.8977C72.4759 30.8977 71.2879 29.7849 71.2879 28.2014C71.2879 26.5969 72.4759 25.5037 73.8567 25.5037C75.2376 25.5037 76.4309 26.5969 76.4309 28.2014C76.4309 29.7849 75.2376 30.8977 73.8567 30.8977V30.8977ZM63.8802 23.7515C61.3582 23.7515 59.3077 25.6214 59.3077 28.2014C59.3077 30.7604 61.3582 32.65 63.8802 32.65C66.4008 32.65 68.4526 30.7604 68.4526 28.2014C68.4526 25.6214 66.4008 23.7515 63.8802 23.7515ZM63.8802 30.8977C62.498 30.8977 61.306 29.7849 61.306 28.2014C61.306 26.5969 62.498 25.5037 63.8802 25.5037C65.261 25.5037 66.449 26.5969 66.449 28.2014C66.449 29.7849 65.261 30.8977 63.8802 30.8977ZM52.0084 25.1154V27.0062H56.6331C56.4978 28.0628 56.1362 28.8395 55.5817 29.3809C54.9067 30.0347 53.8554 30.7604 52.0084 30.7604C49.1624 30.7604 46.9338 28.5178 46.9338 25.7391C46.9338 22.9604 49.1624 20.7178 52.0084 20.7178C53.5473 20.7178 54.667 21.3049 55.4934 22.066L56.8581 20.7335C55.7023 19.656 54.1647 18.8283 52.0084 18.8283C48.1057 18.8283 44.8257 21.9287 44.8257 25.7391C44.8257 29.5496 48.1057 32.65 52.0084 32.65C54.1179 32.65 55.7023 31.9752 56.9479 30.7094C58.2242 29.4633 58.622 27.711 58.622 26.2962C58.622 25.8568 58.5845 25.4527 58.5175 25.1154H52.0084ZM100.553 26.5812C100.177 25.5861 99.0158 23.7515 96.6506 23.7515C94.3068 23.7515 92.3554 25.5547 92.3554 28.2014C92.3554 30.6937 94.2867 32.65 96.8756 32.65C98.969 32.65 100.177 31.4038 100.674 30.678L99.1203 29.6672C98.602 30.4074 97.8962 30.8977 96.8756 30.8977C95.8617 30.8977 95.1345 30.444 94.6684 29.5496L100.764 27.0873L100.553 26.5812V26.5812ZM94.3389 28.0628C94.2867 26.3472 95.7037 25.4684 96.7189 25.4684C97.5145 25.4684 98.1895 25.8568 98.4145 26.4125L94.3389 28.0628V28.0628ZM89.3848 32.3793H91.3884V19.3029H89.3848V32.3793ZM86.1035 24.7427H86.0365C85.5865 24.2223 84.728 23.7515 83.6405 23.7515C81.3583 23.7515 79.2716 25.7077 79.2716 28.2158C79.2716 30.7094 81.3583 32.65 83.6405 32.65C84.728 32.65 85.5865 32.1753 86.0365 31.6392H86.1035V32.2773C86.1035 33.9785 85.1726 34.8925 83.6713 34.8925C82.4471 34.8925 81.6877 34.0295 81.3743 33.3038L79.6319 34.0138C80.1341 35.1933 81.4641 36.6448 83.6713 36.6448C86.0204 36.6448 88.0026 35.2953 88.0026 32.0118V24.0222H86.1035V24.7427V24.7427ZM83.8119 30.8977C82.4311 30.8977 81.2752 29.7692 81.2752 28.2158C81.2752 26.6479 82.4311 25.5037 83.8119 25.5037C85.1727 25.5037 86.2454 26.6479 86.2454 28.2158C86.2454 29.7692 85.1727 30.8977 83.8119 30.8977V30.8977ZM109.934 19.3029H105.142V32.3793H107.14V27.4247H109.934C112.153 27.4247 114.33 25.8568 114.33 23.3631C114.33 20.8708 112.148 19.3029 109.934 19.3029V19.3029ZM109.986 25.6057H107.14V21.1219H109.986C111.478 21.1219 112.33 22.3314 112.33 23.3631C112.33 24.3753 111.478 25.6057 109.986 25.6057ZM122.339 23.7267C120.895 23.7267 119.394 24.3491 118.776 25.7287L120.549 26.4544C120.931 25.7287 121.633 25.4933 122.375 25.4933C123.412 25.4933 124.463 26.1013 124.479 27.1749V27.3122C124.117 27.1082 123.343 26.8061 122.391 26.8061C120.481 26.8061 118.535 27.8326 118.535 29.7483C118.535 31.5005 120.099 32.629 121.858 32.629C123.203 32.629 123.945 32.0367 124.411 31.3476H124.479V32.3584H126.409V27.3423C126.409 25.0238 124.636 23.7267 122.339 23.7267ZM122.098 30.8925C121.444 30.8925 120.533 30.5761 120.533 29.7849C120.533 28.7728 121.669 28.3845 122.652 28.3845C123.532 28.3845 123.945 28.5741 124.479 28.8238C124.322 30.0347 123.255 30.8925 122.098 30.8925V30.8925ZM133.44 24.013L131.143 29.6816H131.075L128.7 24.013H126.546L130.113 31.9347L128.078 36.3427H130.166L135.664 24.013H133.44V24.013ZM115.428 32.3793H117.431V19.3029H115.428V32.3793Z" fill="white"/>
<path d="M12.0345 8.88235C11.7197 9.20402 11.5376 9.70485 11.5376 10.3534V33.4881C11.5376 34.1367 11.7197 34.6375 12.0345 34.9592L12.1122 35.0298L25.3902 22.0711V21.7652L12.1122 8.80651L12.0345 8.88235Z" fill="url(#paint0_linear_2628_2694)"/>
<path d="M29.8107 26.3928L25.3896 22.0711V21.7651L29.8161 17.4434L29.9152 17.4996L35.1573 20.4117C36.6533 21.2381 36.6533 22.5981 35.1573 23.4297L29.9152 26.3366L29.8107 26.3928V26.3928Z" fill="url(#paint1_linear_2628_2694)"/>
<path d="M29.9154 26.3366L25.3899 21.9182L12.0342 34.9592C12.5311 35.4692 13.3414 35.5306 14.2628 35.0206L29.9154 26.3366" fill="url(#paint2_linear_2628_2694)"/>
<path d="M29.9154 17.4997L14.2628 8.81573C13.3414 8.31098 12.5311 8.37244 12.0342 8.88242L25.3899 21.9182L29.9154 17.4997Z" fill="url(#paint3_linear_2628_2694)"/>
<defs>
<linearGradient id="paint0_linear_2628_2694" x1="24.2112" y1="33.729" x2="6.66009" y2="15.7526" gradientUnits="userSpaceOnUse">
<stop stop-color="#00A0FF"/>
<stop offset="0.0066" stop-color="#00A1FF"/>
<stop offset="0.2601" stop-color="#00BEFF"/>
<stop offset="0.5122" stop-color="#00D2FF"/>
<stop offset="0.7604" stop-color="#00DFFF"/>
<stop offset="1" stop-color="#00E3FF"/>
</linearGradient>
<linearGradient id="paint1_linear_2628_2694" x1="37.1054" y1="21.9166" x2="11.1795" y2="21.9166" gradientUnits="userSpaceOnUse">
<stop stop-color="#FFE000"/>
<stop offset="0.4087" stop-color="#FFBD00"/>
<stop offset="0.7754" stop-color="#FFA500"/>
<stop offset="1" stop-color="#FF9C00"/>
</linearGradient>
<linearGradient id="paint2_linear_2628_2694" x1="27.4546" y1="19.5162" x2="3.65377" y2="-4.86131" gradientUnits="userSpaceOnUse">
<stop stop-color="#FF3A44"/>
<stop offset="1" stop-color="#C31162"/>
</linearGradient>
<linearGradient id="paint3_linear_2628_2694" x1="8.67228" y1="42.656" x2="19.3004" y2="31.7705" gradientUnits="userSpaceOnUse">
<stop stop-color="#32A071"/>
<stop offset="0.0685" stop-color="#2DA771"/>
<stop offset="0.4762" stop-color="#15CF74"/>
<stop offset="0.8009" stop-color="#06E775"/>
<stop offset="1" stop-color="#00F076"/>
</linearGradient>
</defs>
</svg>
