<svg width="60" height="61" viewBox="0 0 60 61" fill="none" xmlns="http://www.w3.org/2000/svg">
<g clip-path="url(#clip0_2630_2812)">
<circle opacity="0.2" cx="30" cy="30.5" r="30" fill="#0FAC11"/>
<g clip-path="url(#clip1_2630_2812)">
<path fill-rule="evenodd" clip-rule="evenodd" d="M23.3077 24.6134C23.5608 24.0228 23.9819 23.5195 24.5185 23.166C25.0552 22.8126 25.6838 22.6244 26.3264 22.625H34.6765C35.989 22.625 37.1755 23.4073 37.6927 24.6134L38.7322 27.0389C38.8306 27.2686 39.0078 27.4576 39.2309 27.5692C39.8872 27.8973 40.3531 28.5076 40.4975 29.2256L40.9372 31.4293C40.9805 31.6406 41.0015 31.8558 41.0015 32.0724V32.6144C41.0015 33.6828 40.4896 34.6396 39.689 35.2355V37.7188C39.689 37.8928 39.6198 38.0597 39.4968 38.1828C39.3737 38.3059 39.2068 38.375 39.0327 38.375H36.4077C36.2337 38.375 36.0667 38.3059 35.9437 38.1828C35.8206 38.0597 35.7515 37.8928 35.7515 37.7188V35.9626C34.0557 36.0256 32.1487 36.0781 30.5015 36.0781C28.8543 36.0781 26.9472 36.0256 25.2515 35.9626V37.7188C25.2515 37.8928 25.1823 38.0597 25.0593 38.1828C24.9362 38.3059 24.7693 38.375 24.5952 38.375H21.9702C21.7962 38.375 21.6292 38.3059 21.5062 38.1828C21.3831 38.0597 21.314 37.8928 21.314 37.7188V35.2355C20.5133 34.6396 20.0015 33.6828 20.0015 32.6144V32.0724C20.0017 31.8564 20.0232 31.641 20.0658 31.4293L20.5055 29.2243C20.6498 28.5076 21.1158 27.896 21.7707 27.5692C21.9949 27.4572 22.1721 27.2693 22.2708 27.0389L23.3103 24.6134H23.3077ZM23.9377 33.125C24.2857 33.125 24.6196 32.9867 24.8657 32.7406C25.1119 32.4944 25.2502 32.1606 25.2502 31.8125C25.2502 31.4644 25.1119 31.1306 24.8657 30.8844C24.6196 30.6383 24.2857 30.5 23.9377 30.5C23.5896 30.5 23.2557 30.6383 23.0096 30.8844C22.7634 31.1306 22.6252 31.4644 22.6252 31.8125C22.6252 32.1606 22.7634 32.4944 23.0096 32.7406C23.2557 32.9867 23.5896 33.125 23.9377 33.125V33.125ZM37.0627 33.125C37.4107 33.125 37.7446 32.9867 37.9907 32.7406C38.2369 32.4944 38.3752 32.1606 38.3752 31.8125C38.3752 31.4644 38.2369 31.1306 37.9907 30.8844C37.7446 30.6383 37.4107 30.5 37.0627 30.5C36.7146 30.5 36.3807 30.6383 36.1346 30.8844C35.8884 31.1306 35.7502 31.4644 35.7502 31.8125C35.7502 32.1606 35.8884 32.4944 36.1346 32.7406C36.3807 32.9867 36.7146 33.125 37.0627 33.125V33.125ZM27.8752 30.5C27.5271 30.5 27.1932 30.6383 26.9471 30.8844C26.7009 31.1306 26.5627 31.4644 26.5627 31.8125C26.5627 32.1606 26.7009 32.4944 26.9471 32.7406C27.1932 32.9867 27.5271 33.125 27.8752 33.125H33.1252C33.4732 33.125 33.8071 32.9867 34.0532 32.7406C34.2994 32.4944 34.4377 32.1606 34.4377 31.8125C34.4377 31.4644 34.2994 31.1306 34.0532 30.8844C33.8071 30.6383 33.4732 30.5 33.1252 30.5H27.8752ZM23.8143 26.8106L25.069 24.2998C25.1236 24.1909 25.2073 24.0993 25.311 24.0354C25.4146 23.9714 25.5339 23.9375 25.6557 23.9375H35.3446C35.4664 23.9375 35.5857 23.9714 35.6893 24.0354C35.793 24.0993 35.8767 24.1909 35.9313 24.2998L37.186 26.8106C37.2373 26.9164 37.2598 27.0339 37.2513 27.1513C37.2427 27.2686 37.2034 27.3816 37.1372 27.4788C37.0711 27.5761 36.9805 27.6543 36.8745 27.7054C36.7686 27.7565 36.651 27.7788 36.5337 27.77C35.3393 27.6742 32.1368 27.5469 30.5002 27.5469C28.8635 27.5469 25.6597 27.6742 24.4666 27.77C24.3493 27.7788 24.2317 27.7565 24.1258 27.7054C24.0198 27.6543 23.9292 27.5761 23.8631 27.4788C23.7969 27.3816 23.7576 27.2686 23.749 27.1513C23.7405 27.0339 23.763 26.9164 23.8143 26.8106V26.8106Z" fill="#2AAA0B"/>
</g>
</g>
<defs>
<clipPath id="clip0_2630_2812">
<rect width="60" height="60" fill="white" transform="translate(0 0.5)"/>
</clipPath>
<clipPath id="clip1_2630_2812">
<rect width="21" height="21" fill="white" transform="translate(20 20)"/>
</clipPath>
</defs>
</svg>
