<svg width="60" height="60" viewBox="0 0 60 60" fill="none" xmlns="http://www.w3.org/2000/svg">
<g clip-path="url(#clip0_2630_2802)">
<circle opacity="0.2" cx="30" cy="30" r="30" fill="#0FAC11"/>
<path d="M30.0002 39.9999V30.9999M30.0002 39.9999L27.5002 37.9999M30.0002 39.9999L32.5002 37.9999M23.0342 27.1169C22.0884 27.3549 21.2621 27.9301 20.7105 28.7344C20.1588 29.5387 19.9199 30.5167 20.0385 31.4847C20.1571 32.4528 20.6252 33.3442 21.3547 33.9914C22.0842 34.6387 23.0249 34.9974 24.0002 34.9999H25.0002" stroke="#2AAA0B" stroke-width="2" stroke-linecap="round" stroke-linejoin="round"/>
<path d="M33.8302 25.138C33.4884 23.7845 32.6447 22.6117 31.4703 21.8572C30.2958 21.1027 28.8784 20.8231 27.5054 21.0749C26.1324 21.3267 24.9065 22.0911 24.0762 23.2133C23.2459 24.3355 22.8734 25.7313 23.0342 27.118C23.0342 27.118 23.1872 28 23.5002 28.5" stroke="#2AAA0B" stroke-width="2" stroke-linecap="round" stroke-linejoin="round"/>
<path d="M35 35C35.706 34.9995 36.404 34.8495 37.0479 34.5599C37.6917 34.2702 38.267 33.8475 38.7357 33.3195C39.2045 32.7915 39.5561 32.1702 39.7674 31.4965C39.9787 30.8229 40.045 30.1121 39.9618 29.4109C39.8786 28.7098 39.6479 28.0343 39.2848 27.4287C38.9217 26.8232 38.4345 26.3014 37.8552 25.8978C37.276 25.4941 36.6178 25.2177 35.924 25.0868C35.2302 24.9558 34.5166 24.9733 33.83 25.138L32.5 25.5" stroke="#2AAA0B" stroke-width="2" stroke-linecap="round" stroke-linejoin="round"/>
</g>
<defs>
<clipPath id="clip0_2630_2802">
<rect width="60" height="60" fill="white"/>
</clipPath>
</defs>
</svg>
