<svg width="60" height="61" viewBox="0 0 60 61" fill="none" xmlns="http://www.w3.org/2000/svg">
<g clip-path="url(#clip0_2630_2823)">
<circle opacity="0.2" cx="30" cy="30.5" r="30" fill="#0FAC11"/>
<path d="M39 32C39.6 32 40.1 32.2 40.4 32.6C40.8 33 41 33.5 41 34L33 37L26 35V26H27.9L35.2 28.7C35.7 28.9 36 29.3 36 29.8C36 30.1 35.9 30.4 35.7 30.6C35.5 30.8 35.2 31 34.8 31H32L30.3 30.3L30 31.2L32 32H39M20 26H24V37H20V26Z" fill="#2AAA0B"/>
</g>
<defs>
<clipPath id="clip0_2630_2823">
<rect width="60" height="60" fill="white" transform="translate(0 0.5)"/>
</clipPath>
</defs>
</svg>
