<svg width="118" height="13" viewBox="0 0 118 13" fill="none" xmlns="http://www.w3.org/2000/svg">
<path d="M8.88 4.192C8.624 3.72267 8.272 3.36533 7.824 3.12C7.376 2.87467 6.85333 2.752 6.256 2.752C5.59467 2.752 5.008 2.90133 4.496 3.2C3.984 3.49867 3.584 3.92533 3.296 4.48C3.008 5.03467 2.864 5.67467 2.864 6.4C2.864 7.14667 3.008 7.79733 3.296 8.352C3.59467 8.90667 4.00533 9.33333 4.528 9.632C5.05067 9.93067 5.65867 10.08 6.352 10.08C7.20533 10.08 7.904 9.856 8.448 9.408C8.992 8.94933 9.34933 8.31467 9.52 7.504H5.68V5.792H11.728V7.744C11.5787 8.52267 11.2587 9.24267 10.768 9.904C10.2773 10.5653 9.64267 11.0987 8.864 11.504C8.096 11.8987 7.232 12.096 6.272 12.096C5.19467 12.096 4.21867 11.856 3.344 11.376C2.48 10.8853 1.79733 10.208 1.296 9.344C0.805333 8.48 0.56 7.49867 0.56 6.4C0.56 5.30133 0.805333 4.32 1.296 3.456C1.79733 2.58133 2.48 1.904 3.344 1.424C4.21867 0.933333 5.18933 0.688 6.256 0.688C7.51467 0.688 8.608 0.997333 9.536 1.616C10.464 2.224 11.104 3.08267 11.456 4.192H8.88ZM15.6253 4.512C15.9133 4.04267 16.2866 3.67467 16.7453 3.408C17.2146 3.14133 17.7479 3.008 18.3453 3.008V5.36H17.7533C17.0493 5.36 16.5159 5.52533 16.1533 5.856C15.8013 6.18667 15.6253 6.76267 15.6253 7.584V12H13.3853V3.136H15.6253V4.512ZM28.094 7.376C28.094 7.696 28.0727 7.984 28.03 8.24H21.55C21.6033 8.88 21.8273 9.38133 22.222 9.744C22.6167 10.1067 23.102 10.288 23.678 10.288C24.51 10.288 25.102 9.93067 25.454 9.216H27.87C27.614 10.0693 27.1233 10.7733 26.398 11.328C25.6727 11.872 24.782 12.144 23.726 12.144C22.8727 12.144 22.1047 11.9573 21.422 11.584C20.75 11.2 20.222 10.6613 19.838 9.968C19.4647 9.27467 19.278 8.47467 19.278 7.568C19.278 6.65067 19.4647 5.84533 19.838 5.152C20.2113 4.45867 20.734 3.92533 21.406 3.552C22.078 3.17867 22.8513 2.992 23.726 2.992C24.5687 2.992 25.3207 3.17333 25.982 3.536C26.654 3.89867 27.1713 4.416 27.534 5.088C27.9073 5.74933 28.094 6.512 28.094 7.376ZM25.774 6.736C25.7633 6.16 25.5553 5.70133 25.15 5.36C24.7447 5.008 24.2487 4.832 23.662 4.832C23.1073 4.832 22.638 5.00267 22.254 5.344C21.8807 5.67467 21.6513 6.13867 21.566 6.736H25.774ZM29.153 7.536C29.153 6.64 29.329 5.84533 29.681 5.152C30.0437 4.45867 30.529 3.92533 31.137 3.552C31.7557 3.17867 32.4437 2.992 33.201 2.992C33.8623 2.992 34.4383 3.12533 34.929 3.392C35.4303 3.65867 35.8303 3.99467 36.129 4.4V3.136H38.385V12H36.129V10.704C35.841 11.12 35.441 11.4667 34.929 11.744C34.4277 12.0107 33.8463 12.144 33.185 12.144C32.4383 12.144 31.7557 11.952 31.137 11.568C30.529 11.184 30.0437 10.6453 29.681 9.952C29.329 9.248 29.153 8.44267 29.153 7.536ZM36.129 7.568C36.129 7.024 36.0223 6.56 35.809 6.176C35.5957 5.78133 35.3077 5.48267 34.945 5.28C34.5823 5.06667 34.193 4.96 33.777 4.96C33.361 4.96 32.977 5.06133 32.625 5.264C32.273 5.46667 31.985 5.76533 31.761 6.16C31.5477 6.544 31.441 7.00267 31.441 7.536C31.441 8.06933 31.5477 8.53867 31.761 8.944C31.985 9.33867 32.273 9.64267 32.625 9.856C32.9877 10.0693 33.3717 10.176 33.777 10.176C34.193 10.176 34.5823 10.0747 34.945 9.872C35.3077 9.65867 35.5957 9.36 35.809 8.976C36.0223 8.58133 36.129 8.112 36.129 7.568ZM39.9967 7.568C39.9967 6.65067 40.1834 5.85067 40.5568 5.168C40.9301 4.47467 41.4474 3.94133 42.1088 3.568C42.7701 3.184 43.5274 2.992 44.3808 2.992C45.4794 2.992 46.3861 3.26933 47.1008 3.824C47.8261 4.368 48.3114 5.136 48.5568 6.128H46.1408C46.0128 5.744 45.7941 5.44533 45.4848 5.232C45.1861 5.008 44.8128 4.896 44.3648 4.896C43.7248 4.896 43.2181 5.13067 42.8448 5.6C42.4714 6.05867 42.2848 6.71467 42.2848 7.568C42.2848 8.41067 42.4714 9.06667 42.8448 9.536C43.2181 9.99467 43.7248 10.224 44.3648 10.224C45.2714 10.224 45.8634 9.81867 46.1408 9.008H48.5568C48.3114 9.968 47.8261 10.7307 47.1008 11.296C46.3754 11.8613 45.4688 12.144 44.3808 12.144C43.5274 12.144 42.7701 11.9573 42.1088 11.584C41.4474 11.2 40.9301 10.6667 40.5568 9.984C40.1834 9.29067 39.9967 8.48533 39.9967 7.568ZM55.1898 3.008C55.8618 3.008 56.4591 3.15733 56.9818 3.456C57.5044 3.744 57.9098 4.176 58.1978 4.752C58.4964 5.31733 58.6458 6 58.6458 6.8V12H56.4058V7.104C56.4058 6.4 56.2298 5.86133 55.8778 5.488C55.5258 5.104 55.0458 4.912 54.4378 4.912C53.8191 4.912 53.3284 5.104 52.9658 5.488C52.6138 5.86133 52.4378 6.4 52.4378 7.104V12H50.1978V0.16H52.4378V4.24C52.7258 3.856 53.1098 3.55733 53.5898 3.344C54.0698 3.12 54.6031 3.008 55.1898 3.008ZM69.7724 0.672C70.8604 0.672 71.8257 0.917333 72.6684 1.408C73.5217 1.888 74.183 2.56533 74.6524 3.44C75.1324 4.304 75.3724 5.29067 75.3724 6.4C75.3724 7.50933 75.1324 8.50133 74.6524 9.376C74.183 10.24 73.5217 10.9173 72.6684 11.408C71.8257 11.888 70.8604 12.128 69.7724 12.128C68.6737 12.128 67.6977 11.888 66.8444 11.408C66.0017 10.9173 65.3404 10.24 64.8604 9.376C64.391 8.50133 64.1564 7.50933 64.1564 6.4C64.1564 5.29067 64.391 4.304 64.8604 3.44C65.3404 2.56533 66.0017 1.888 66.8444 1.408C67.6977 0.917333 68.6737 0.672 69.7724 0.672ZM69.7724 1.488C68.8124 1.488 67.975 1.69067 67.2604 2.096C66.5457 2.49067 65.9964 3.06133 65.6124 3.808C65.2284 4.544 65.0364 5.408 65.0364 6.4C65.0364 7.38133 65.2284 8.24533 65.6124 8.992C65.9964 9.728 66.5457 10.304 67.2604 10.72C67.975 11.1253 68.8124 11.328 69.7724 11.328C70.7217 11.328 71.5537 11.1253 72.2684 10.72C72.983 10.304 73.5324 9.728 73.9164 8.992C74.3004 8.24533 74.4924 7.38133 74.4924 6.4C74.4924 5.408 74.3004 4.544 73.9164 3.808C73.5324 3.06133 72.983 2.49067 72.2684 2.096C71.5644 1.69067 70.7324 1.488 69.7724 1.488ZM69.7564 2.752C69.0844 2.752 68.4817 2.90133 67.9484 3.2C67.415 3.49867 66.9937 3.92533 66.6844 4.48C66.3857 5.024 66.2364 5.65867 66.2364 6.384C66.2364 7.10933 66.3857 7.74933 66.6844 8.304C66.9937 8.85867 67.415 9.28533 67.9484 9.584C68.4817 9.88267 69.0844 10.032 69.7564 10.032C70.5777 10.032 71.287 9.808 71.8844 9.36C72.4817 8.90133 72.871 8.29867 73.0524 7.552H71.0844C70.967 7.85067 70.7964 8.08 70.5724 8.24C70.359 8.4 70.071 8.48 69.7084 8.48C69.2177 8.48 68.8284 8.304 68.5404 7.952C68.263 7.58933 68.1244 7.06667 68.1244 6.384C68.1244 5.70133 68.263 5.184 68.5404 4.832C68.8284 4.48 69.2177 4.304 69.7084 4.304C70.0497 4.304 70.3377 4.384 70.5724 4.544C70.8177 4.704 70.9884 4.93333 71.0844 5.232H73.0524C72.871 4.464 72.4817 3.86133 71.8844 3.424C71.2977 2.976 70.5884 2.752 69.7564 2.752ZM81.4114 9.472C82.4354 8.61867 83.2514 7.90933 83.8594 7.344C84.4674 6.768 84.974 6.17067 85.3794 5.552C85.7847 4.93333 85.9874 4.32533 85.9874 3.728C85.9874 3.184 85.8594 2.75733 85.6034 2.448C85.3474 2.13867 84.9527 1.984 84.4194 1.984C83.886 1.984 83.4754 2.16533 83.1874 2.528C82.8994 2.88 82.75 3.36533 82.7394 3.984H80.5634C80.606 2.704 80.9847 1.73333 81.6994 1.072C82.4247 0.410666 83.342 0.079999 84.4514 0.079999C85.6674 0.079999 86.6007 0.405333 87.2514 1.056C87.902 1.696 88.2274 2.544 88.2274 3.6C88.2274 4.432 88.0034 5.22667 87.5554 5.984C87.1074 6.74133 86.5954 7.40267 86.0194 7.968C85.4434 8.52267 84.6914 9.19467 83.7634 9.984H88.4834V11.84H80.5794V10.176L81.4114 9.472ZM89.8949 6.016C89.8949 4.17067 90.2255 2.72533 90.8869 1.68C91.5589 0.634666 92.6682 0.112 94.2149 0.112C95.7615 0.112 96.8655 0.634666 97.5269 1.68C98.1989 2.72533 98.5349 4.17067 98.5349 6.016C98.5349 7.872 98.1989 9.328 97.5269 10.384C96.8655 11.44 95.7615 11.968 94.2149 11.968C92.6682 11.968 91.5589 11.44 90.8869 10.384C90.2255 9.328 89.8949 7.872 89.8949 6.016ZM96.3269 6.016C96.3269 5.22667 96.2735 4.56533 96.1669 4.032C96.0709 3.488 95.8682 3.04533 95.5589 2.704C95.2602 2.36267 94.8122 2.192 94.2149 2.192C93.6175 2.192 93.1642 2.36267 92.8549 2.704C92.5562 3.04533 92.3535 3.488 92.2469 4.032C92.1509 4.56533 92.1029 5.22667 92.1029 6.016C92.1029 6.82667 92.1509 7.50933 92.2469 8.064C92.3429 8.608 92.5455 9.05067 92.8549 9.392C93.1642 9.72267 93.6175 9.888 94.2149 9.888C94.8122 9.888 95.2655 9.72267 95.5749 9.392C95.8842 9.05067 96.0869 8.608 96.1829 8.064C96.2789 7.50933 96.3269 6.82667 96.3269 6.016ZM100.943 9.472C101.967 8.61867 102.783 7.90933 103.391 7.344C103.999 6.768 104.505 6.17067 104.911 5.552C105.316 4.93333 105.519 4.32533 105.519 3.728C105.519 3.184 105.391 2.75733 105.135 2.448C104.879 2.13867 104.484 1.984 103.951 1.984C103.417 1.984 103.007 2.16533 102.719 2.528C102.431 2.88 102.281 3.36533 102.271 3.984H100.095C100.137 2.704 100.516 1.73333 101.231 1.072C101.956 0.410666 102.873 0.079999 103.983 0.079999C105.199 0.079999 106.132 0.405333 106.783 1.056C107.433 1.696 107.759 2.544 107.759 3.6C107.759 4.432 107.535 5.22667 107.087 5.984C106.639 6.74133 106.127 7.40267 105.551 7.968C104.975 8.52267 104.223 9.19467 103.295 9.984H108.015V11.84H100.111V10.176L100.943 9.472ZM110.13 9.472C111.154 8.61867 111.97 7.90933 112.578 7.344C113.186 6.768 113.693 6.17067 114.098 5.552C114.503 4.93333 114.706 4.32533 114.706 3.728C114.706 3.184 114.578 2.75733 114.322 2.448C114.066 2.13867 113.671 1.984 113.138 1.984C112.605 1.984 112.194 2.16533 111.906 2.528C111.618 2.88 111.469 3.36533 111.458 3.984H109.282C109.325 2.704 109.703 1.73333 110.418 1.072C111.143 0.410666 112.061 0.079999 113.17 0.079999C114.386 0.079999 115.319 0.405333 115.97 1.056C116.621 1.696 116.946 2.544 116.946 3.6C116.946 4.432 116.722 5.22667 116.274 5.984C115.826 6.74133 115.314 7.40267 114.738 7.968C114.162 8.52267 113.41 9.19467 112.482 9.984H117.202V11.84H109.298V10.176L110.13 9.472Z" fill="white"/>
</svg>
